# xmcd CD database file
#
# Track frame offsets:
#	150
#	18322
#	39520
#	68920
#	87605
#	120952
#	146593
#	181306
#	203605
#
# Disc length: 2993 seconds
#
# Revision: 0
# Processed by: cddbd v1.5.2PL0 Copyright (c) Steve Scherf et al.
# Submitted via: CDex 1.51
#
DISCID=740baf09
DTITLE=松尾泰伸 - Yellow rlung
DYEAR=2009
DGENRE=New Age
TTITLE0=奇跡
TTITLE1=風を待つ
TTITLE2=Cure egg
TTITLE3=AI
TTITLE4=森の声
TTITLE5=ROOTS
TTITLE6=サークル
TTITLE7=flower
TTITLE8=雪の回廊／ありがとうそんぐ
EXTD=YEAR: 2009
EXTT0=
EXTT1=
EXTT2=
EXTT3=
EXTT4=
EXTT5=
EXTT6=
EXTT7=
EXTT8=
PLAYORDER=
